<svg id="Layer_1" data-name="Layer 1" xmlns="http://www.w3.org/2000/svg" viewBox="0 0 338.16 125.16">
  <title>bikeYourWay_logoType</title>
  <g>
    <g>
      <path d="M0,27.47H11.62q7.08,0,10.15,3.66t3.07,10.45a17.84,17.84,0,0,1-1.6,7.9A7.24,7.24,0,0,1,18,53.54a9.51,9.51,0,0,1,6.28,5.1,20.5,20.5,0,0,1,1.87,9.08q0,7.62-2.84,12t-9.91,4.37H0ZM12.42,51.86c2.89,0,4.92-.88,6.08-2.62s1.73-4.3,1.73-7.66a15.22,15.22,0,0,0-.9-5.73,6,6,0,0,0-3.14-3.21,15.2,15.2,0,0,0-6.31-1.05H5.08V51.86Zm-.07,28.23a9.53,9.53,0,0,0,5.38-1.29,6.85,6.85,0,0,0,2.67-4,26.6,26.6,0,0,0,.77-7.13Q21.17,56,12.49,56H5.08V80.09Z" fill="#fff"/>
      <path d="M33.66,27.47h5.07V84.08H33.66Z" fill="#fff"/>
      <path d="M48.28,27.47h5.14V57.38L67.85,27.47h4.87L61.64,51.79,75.13,84.08h-5L58.23,55.77,53.42,65V84.08H48.28Z" fill="#fff"/>
      <path d="M79.86,27.47H99.43v4.12H85V52.84H96.76v3.91H85V80.09H99.57v4H79.86Z" fill="#fff"/>
    </g>
    <g>
      <path d="M234.92,29h4.34l7.15,46,8.14-45.14h4.21L267.11,75,273.72,29H278l-8.75,56.61H265.3l-8.61-46.69-8.48,46.69h-4.14Z" fill="#fff"/>
      <path d="M291.48,29h5.34l11.49,56.61h-5l-2.67-15.17H287.74L285,85.58h-4.95ZM300,66.57,294.22,36l-5.74,30.54Z" fill="#fff"/>
      <path d="M321.33,66.78,309.11,29h4.94l9.75,31.45L333.15,29h5L326.27,66.78v18.8h-4.94Z" fill="#fff"/>
    </g>
    <g>
      <path d="M137.62,84.26c-2,1.65-9.12,17.16-11.85,28.62,1.1-11,4.51-39.44,7.54-49.87,1.73-5.83,3.23-11.57,5.12-16.51.62-1.67,1.36-2.82,2-3s1.05.14.93-.18c-.8-2.06-5.12-4.12-6.92-3.39a1.7,1.7,0,0,0-1,1c-2.91,5.36-6.29,14.89-8.82,20.75-2.23,5.27-7.36,15.89-10.48,19-.92-2.38.13-11.16,2-18.2,1.24-4.77,2.93-10,4.24-10.35.66-.17,1.06.15.93-.18-.82-2.14-5-4.15-6.92-3.39a1.74,1.74,0,0,0-.9.94A54.44,54.44,0,0,0,109.32,62c-1.95,8.3-3.06,18.34-1.69,21.87.76,2,4,3.22,5.29,2.71l.63-.25c4.32-2.88,10.6-19.66,15.24-31.32-5.9,17.77-8.15,43.85-8.6,54.86-.08,4-.33,8.3.38,10.86.34,1.58,3.26,5.63,6.26,4a1.31,1.31,0,0,0,.77-.6c-.66-4.29,3-25.72,10.6-39.61C138.2,84.59,138,84.1,137.62,84.26Z" fill="#fff"/>
      <path d="M244,7.2c-3.11,6.48-7.09,12.36-10.72,14.2.11-7.45,4.3-16.07,5.29-18.66.29-.87-4.28-3.11-5.11-2.69-1.58.83-3.39,3.18-5.56,6.71C223.09,14.57,217.92,24.63,216,32a116.4,116.4,0,0,1,2.69-12.49c1.08-4.24,2.59-8.55,3.8-8.94.65-.17,1.05.15.92-.18-.79-2.06-5-4.06-6.88-3.3a1.89,1.89,0,0,0-.94.85c-1.32,2.43-3.07,8-4.2,13.28-.15.68-.3,1.39-.45,2.1-3.23,7.35-9.32,20.88-13.3,24.15-.89-2.3-.25-9.31,1.54-16.39,1.19-4.66,2.24-8.5,2.91-10.29.57-1.56,1.31-2.71,1.85-2.93.74-.21,1.14.11,1-.22-.79-2.05-5-4.06-6.88-3.3a1.74,1.74,0,0,0-.94.85c-3.07,5.42-6.11,14.9-8.56,20.74C186.23,41.2,181.1,51.82,178,55c-.92-2.39.24-11.12,2.11-18.23,1.27-4.69,2.91-10.3,4.14-10.6.74-.21,1.21.08,1.09-.25-.83-2.13-5.12-4.11-7-3.36a1.74,1.74,0,0,0-.9.94,54.1,54.1,0,0,0-3.65,10.32A15.11,15.11,0,0,1,171,35.66c-3,1.51-5.65.38-8.12-1.57a2.55,2.55,0,0,0-2.11-.1c-1,.5-2.39,3.91-2.31,4.83s1.74,3.1,2.42,3.68c-2,10.5-8.13,28.16-13.25,28s.53-34.51,14.71-40.22c.54-.22,1.23-.31,2.05-.54.31-.13.55-.22.06-.31-.74-.27-2.34-.67-5.32.53-12.37,5-24.34,25.29-19.18,38.69a6.83,6.83,0,0,0,8.46,4.1c8.49-2.85,20.13-21.22,18-33a7,7,0,0,0,2.47-.61A16.43,16.43,0,0,0,173,36.71c-1.9,8.21-2.95,18-1.61,21.48.76,2,4,3.21,5.3,2.7l.63-.25c4.31-2.88,10.24-18.94,14.88-30.6a61.47,61.47,0,0,0-2,16.31,16.84,16.84,0,0,0,.51,3.88c.57,1.48,2.86,2.74,4.37,2.89a2.14,2.14,0,0,0,1.44,0c3.75-1.51,9.27-13.86,13.28-24.15a76.39,76.39,0,0,0-1.26,10.75c-.21,2.27,0,4,.45,4.67,1.43,2.08,4.29,3.87,6.34,2.38-2-.13-.13-9.25,2.12-15.38A66.6,66.6,0,0,1,228.3,11c-1.09,3.29-1.76,9.06-.87,11.37.38,1,3.84,2.91,5.25,2.35,5.4-2.18,11.25-15.17,11.9-17.72C244.43,6.82,244,7.09,244,7.2Z" fill="#fff"/>
    </g>
  </g>
</svg>
