<svg id="Layer_1" data-name="Layer 1" xmlns="http://www.w3.org/2000/svg" viewBox="0 0 175 172">
  <title>Logo_color</title>
  <g>
    <rect width="175" height="172" fill="#eb4454"/>
    <g>
      <g>
        <path d="M64.7,42.37h5.22q3.18,0,4.56,1.57a6.61,6.61,0,0,1,1.38,4.49,7.38,7.38,0,0,1-.72,3.39,3.22,3.22,0,0,1-2.37,1.74,4.24,4.24,0,0,1,2.82,2.19,8.5,8.5,0,0,1,.84,3.9,9,9,0,0,1-1.27,5.14q-1.27,1.88-4.46,1.88h-6Zm5.58,10.47A3.09,3.09,0,0,0,73,51.71a5.74,5.74,0,0,0,.78-3.28,6.25,6.25,0,0,0-.4-2.46A2.65,2.65,0,0,0,72,44.59a7.16,7.16,0,0,0-2.84-.45H67v8.7Zm0,12.12a4.44,4.44,0,0,0,2.42-.56,2.94,2.94,0,0,0,1.2-1.69,10.94,10.94,0,0,0,.34-3.06q0-5-3.9-5H67V65Z" fill="#fff"/>
        <path d="M79.82,42.37H82.1v24.3H79.82Z" fill="#fff"/>
        <path d="M86.39,42.37H88.7V55.21l6.48-12.84h2.19l-5,10.44,6.06,13.86H96.2L90.86,54.52l-2.16,4v8.19H86.39Z" fill="#fff"/>
        <path d="M100.58,42.37h8.79v1.77h-6.48v9.12h5.28v1.68h-5.28V65h6.54v1.71h-8.85Z" fill="#fff"/>
      </g>
      <g>
        <path d="M63.58,105.37h2l3.21,19.74,3.66-19.38h1.89L78,125.14l3-19.77h1.92L79,129.67H77.23l-3.87-20-3.81,20H67.69Z" fill="#fff"/>
        <path d="M89,105.37h2.4l5.16,24.3H94.3l-1.2-6.51H87.31l-1.23,6.51H83.86Zm3.81,16.14L90.22,108.4l-2.58,13.11Z" fill="#fff"/>
        <path d="M102.4,121.6l-5.49-16.23h2.22l4.38,13.5,4.2-13.5H110l-5.34,16.23v8.07H102.4Z" fill="#fff"/>
      </g>
      <g>
        <path d="M63.57,100.59c-1.31.66-7.12,8.15-10,14,1.9-5.75,7.16-20.57,10.08-25.81,1.65-2.92,3.17-5.82,4.81-8.25.54-.82,1.09-1.35,1.47-1.37s.58.2.54,0c-.2-1.19-2.37-2.78-3.47-2.59a1,1,0,0,0-.66.4c-2.26,2.54-5.27,7.25-7.38,10.1-1.86,2.57-6,7.67-8.1,9-.23-1.38,1.39-6,3.28-9.5,1.25-2.41,2.81-5,3.59-5,.38,0,.57.19.54,0-.21-1.23-2.33-2.78-3.48-2.59a1,1,0,0,0-.61.4,29.28,29.28,0,0,0-3.83,6.22C48.29,89.75,46.49,95,46.84,97a3,3,0,0,0,2.64,2l.38-.07C52.61,98,58.1,89.69,62.07,84c-5.39,8.83-9.72,22.52-11.27,28.35-.51,2.14-1.16,4.4-1.06,5.85,0,.88,1.16,3.37,3,2.86a.78.78,0,0,0,.5-.23c.13-2.37,4.71-13.41,10.58-20C63.85,100.84,63.81,100.55,63.57,100.59Z" fill="#fff"/>
        <path d="M132.12,71.36c-2.5,3.11-5.42,5.81-7.67,6.38.94-4,4.3-8.11,5.15-9.38.27-.43-2-2.14-2.54-2-1,.27-2.27,1.32-3.89,3-3.59,3.64-7.66,8.44-9.62,12.14a63.71,63.71,0,0,1,3-6.37c1.1-2.14,2.45-4.28,3.17-4.35.39,0,.57.2.54,0-.2-1.19-2.32-2.74-3.46-2.54a1.1,1.1,0,0,0-.62.35,32.37,32.37,0,0,0-3.91,6.62q-.26.52-.51,1.08c-2.67,3.56-7.66,10.11-10.28,11.41-.22-1.33,1-5,2.8-8.59,1.21-2.35,2.25-4.29,2.83-5.17s1-1.3,1.39-1.36.61.19.58,0c-.2-1.19-2.32-2.74-3.46-2.54a1,1,0,0,0-.62.35c-2.36,2.55-5.17,7.28-7.23,10.12-1.91,2.57-6,7.67-8.15,9C89.36,88.1,91,83.56,92.91,80c1.26-2.36,2.84-5.17,3.57-5.2.43,0,.66.18.63,0-.21-1.23-2.38-2.77-3.52-2.58a1,1,0,0,0-.61.4,29.62,29.62,0,0,0-3.26,5.1,8.71,8.71,0,0,1-1.77.69c-1.88.46-3.2-.43-4.36-1.75a1.45,1.45,0,0,0-1.17-.29,4.65,4.65,0,0,0-1.85,2.32,4.53,4.53,0,0,0,.91,2.23c-2.36,5.39-7.86,14.15-10.7,13.5s4.35-18.38,13-19.84c.33-.06.73,0,1.21-.06.19,0,.34-.06.07-.16A4.19,4.19,0,0,0,82,74c-7.51,1.27-16.6,10.78-15.28,18.53A3.87,3.87,0,0,0,71,95.67c5.08-.56,13.75-9.08,14-15.61a4.38,4.38,0,0,0,1.46,0A9.82,9.82,0,0,0,89,79.16c-2,4.18-3.77,9.29-3.43,11.3a3,3,0,0,0,2.65,2l.38-.06c2.75-1.06,8-9,11.92-14.69a32.53,32.53,0,0,0-3,8.49,8.57,8.57,0,0,0-.18,2.13,3.32,3.32,0,0,0,2.11,2,1.28,1.28,0,0,0,.81.15c2.27-.38,6.81-6.36,10.26-11.41a40.6,40.6,0,0,0-2,5.6,4.54,4.54,0,0,0-.3,2.55c.55,1.27,2,2.55,3.27,2-1.13-.3,1-5,3-8a36.81,36.81,0,0,1,8.47-9.7c-1,1.64-2,4.65-1.82,6,.1.57,1.8,2,2.66,1.84,3.28-.55,8.08-6.84,8.74-8.13C132.43,71.21,132.16,71.3,132.12,71.36Z" fill="#fff"/>
      </g>
    </g>
  </g>
</svg>
